<svg width="185" height="111" viewBox="0 0 185 111" fill="none" xmlns="http://www.w3.org/2000/svg">
<circle cx="34.5" cy="17.5" r="17.5" fill="#58FF48"/>
<circle cx="34.5" cy="92.5" r="17.5" fill="#58FF48"/>
<circle cx="149.5" cy="17.5" r="17.5" fill="#58FF48"/>
<circle cx="167.5" cy="35.5" r="17.5" fill="#58FF48"/>
<circle cx="17.5" cy="35.5" r="17.5" fill="#58FF48"/>
<circle cx="167.5" cy="75.5" r="17.5" fill="#58FF48"/>
<circle cx="17.5" cy="75.5" r="17.5" fill="#58FF48"/>
<circle cx="149.5" cy="93.5" r="17.5" fill="#58FF48"/>
<circle cx="73.5" cy="17.5" r="17.5" fill="#58FF48"/>
<circle cx="73.5" cy="92.5" r="17.5" fill="#58FF48"/>
<circle cx="111.5" cy="17.5" r="17.5" fill="#58FF48"/>
<circle cx="111.5" cy="92.5" r="17.5" fill="#58FF48"/>
<circle cx="34.5" cy="17.5" r="16.5" fill="#21B13B"/>
<circle cx="34.5" cy="92.5" r="16.5" fill="#21B13B"/>
<circle cx="149.5" cy="17.5" r="16.5" fill="#21B13B"/>
<circle cx="167.5" cy="35.5" r="16.5" fill="#21B13B"/>
<circle cx="17.5" cy="35.5" r="16.5" fill="#21B13B"/>
<circle cx="167.5" cy="75.5" r="16.5" fill="#21B13B"/>
<circle cx="17.5" cy="75.5" r="16.5" fill="#21B13B"/>
<circle cx="149.5" cy="93.5" r="16.5" fill="#21B13B"/>
<circle cx="73.5" cy="17.5" r="16.5" fill="#21B13B"/>
<circle cx="73.5" cy="92.5" r="16.5" fill="#21B13B"/>
<circle cx="111.5" cy="17.5" r="16.5" fill="#21B13B"/>
<circle cx="111.5" cy="92.5" r="16.5" fill="#21B13B"/>
<rect x="17" y="18" width="150" height="75" fill="#58FF48"/>
<rect x="19" y="20" width="146" height="71" fill="#21B13B"/>
</svg>
